HIERARCHY
ROOT Hips
{
	OFFSET 0.000000 0.000000 0.000000
	CHANNELS 6 Xposition Yposition Zposition Xrotation Yrotation Zrotation
	JOINT C_ctrl
	{
		OFFSET 0.000000 35.040482 -0.000011
		CHANNELS 3 Xrotation Yrotation Zrotation
		JOINT Bip01
		{
			OFFSET -41.537640 41.789009 -0.000007
			CHANNELS 3 Xrotation Yrotation Zrotation
			JOINT Bip01_Pelvis
			{
				OFFSET -2.462887 0.000000 0.000000
				CHANNELS 3 Xrotation Yrotation Zrotation
				JOINT BN_Tail_01
				{
					OFFSET -11.399368 7.351341 -0.000013
					CHANNELS 3 Xrotation Yrotation Zrotation
					JOINT BN_Tail_02
					{
						OFFSET -11.365196 -0.343025 0.000012
						CHANNELS 3 Xrotation Yrotation Zrotation
						JOINT BN_Tail_03
						{
							OFFSET -15.076256 -0.454979 0.000017
							CHANNELS 3 Xrotation Yrotation Zrotation
							JOINT BN_Tail_04
							{
								OFFSET -17.395691 -0.525002 0.000016
								CHANNELS 3 Xrotation Yrotation Zrotation
								JOINT BN_Tail_05
								{
									OFFSET -16.699837 -0.504005 0.000016
									CHANNELS 3 Xrotation Yrotation Zrotation
									End Site
									{
										OFFSET 0.503998 -16.699829 0.000067
									}
								}
							}
						}
					}
				}
				JOINT Bip01_Spine
				{
					OFFSET 8.297798 5.916809 -0.000020
					CHANNELS 3 Xrotation Yrotation Zrotation
					JOINT Bip01_R_Thigh
					{
						OFFSET -8.297779 -5.916794 10.541781
						CHANNELS 3 Xrotation Yrotation Zrotation
						JOINT Bip01_R_Calf
						{
							OFFSET 5.631542 -22.906792 0.862690
							CHANNELS 3 Xrotation Yrotation Zrotation
							JOINT Bip01_R_HorseLink
							{
								OFFSET -16.984341 -19.231926 -3.555767
								CHANNELS 3 Xrotation Yrotation Zrotation
								JOINT Bip01_R_Foot
								{
									OFFSET 4.290367 -24.783146 0.578056
									CHANNELS 3 Xrotation Yrotation Zrotation
									JOINT Bip01_R_Toe0
									{
										OFFSET 3.561211 -5.815116 0.760802
										CHANNELS 3 Xrotation Yrotation Zrotation
										JOINT Bip01_R_Toe0Nub
										{
											OFFSET 16.135469 0.002017 1.534789
											CHANNELS 3 Xrotation Yrotation Zrotation
											End Site
											{
												OFFSET -0.000002 16.208284 -0.000056
											}
										}
									}
								}
							}
						}
					}
					JOINT Bip01_L_Thigh
					{
						OFFSET -8.297813 -5.916832 -10.541739
						CHANNELS 3 Xrotation Yrotation Zrotation
						JOINT Bip01_L_Calf
						{
							OFFSET 5.631535 -22.906792 -0.862625
							CHANNELS 3 Xrotation Yrotation Zrotation
							JOINT Bip01_L_HorseLink
							{
								OFFSET -16.984318 -19.231949 3.555875
								CHANNELS 3 Xrotation Yrotation Zrotation
								JOINT Bip01_L_Foot
								{
									OFFSET 4.290367 -24.783169 -0.577965
									CHANNELS 3 Xrotation Yrotation Zrotation
									JOINT Bip01_L_Toe0
									{
										OFFSET 3.561245 -5.815111 -0.760799
										CHANNELS 3 Xrotation Yrotation Zrotation
										JOINT Bip01_L_Toe0Nub
										{
											OFFSET 6.574303 -0.000005 -1.538561
											CHANNELS 3 Xrotation Yrotation Zrotation
											End Site
											{
												OFFSET 0.000004 -6.751935 0.000023
											}
										}
									}
								}
							}
						}
					}
					JOINT Bip01_Spine1
					{
						OFFSET 20.556803 -4.626213 -0.000025
						CHANNELS 3 Xrotation Yrotation Zrotation
						JOINT Saddle
						{
							OFFSET 17.608810 18.174690 -0.000143
							CHANNELS 3 Xrotation Yrotation Zrotation
							End Site
							{
								OFFSET -0.000063 -0.000061 -22.448387
							}
						}
						JOINT BN_center
						{
							OFFSET 10.743275 -13.417107 -0.172041
							CHANNELS 3 Xrotation Yrotation Zrotation
							End Site
							{
								OFFSET 22.434088 0.553078 -0.579614
							}
						}
						JOINT Bip01_Spine2
						{
							OFFSET 24.765072 -2.054115 -0.000032
							CHANNELS 3 Xrotation Yrotation Zrotation
							JOINT Handle
							{
								OFFSET 63.735676 16.430748 -16.052464
								CHANNELS 3 Xrotation Yrotation Zrotation
								JOINT IK_Chain01
								{
									OFFSET -4.713058 -6.020439 0.185448
									CHANNELS 3 Xrotation Yrotation Zrotation
									End Site
									{
										OFFSET -0.000023 -0.000023 -7.648071
									}
								}
							}
							JOINT BN_hair04_01
							{
								OFFSET 1.987491 16.256981 -2.049672
								CHANNELS 3 Xrotation Yrotation Zrotation
								JOINT BN_hair04_02
								{
									OFFSET -1.318762 -3.831451 -6.174704
									CHANNELS 3 Xrotation Yrotation Zrotation
									JOINT BN_hair04_03
									{
										OFFSET -0.827490 -5.886627 -5.656666
										CHANNELS 3 Xrotation Yrotation Zrotation
										End Site
										{
											OFFSET -2.658262 5.010620 -5.929780
										}
									}
								}
							}
							JOINT Bip01_Neck
							{
								OFFSET 25.574577 9.433014 -0.000084
								CHANNELS 3 Xrotation Yrotation Zrotation
								JOINT Bip01_R_Clavicle
								{
									OFFSET -16.535652 0.011192 6.705692
									CHANNELS 3 Xrotation Yrotation Zrotation
									JOINT Bip01_R_UpperArm
									{
										OFFSET 20.272621 -12.959984 2.510816
										CHANNELS 3 Xrotation Yrotation Zrotation
										JOINT Bip01_R_Forearm
										{
											OFFSET -13.633509 -15.503704 -0.653585
											CHANNELS 3 Xrotation Yrotation Zrotation
											JOINT Bip01_R_Hand
											{
												OFFSET 2.580030 -27.804676 -1.136415
												CHANNELS 3 Xrotation Yrotation Zrotation
												JOINT Bip01_R_Finger0
												{
													OFFSET -0.281744 -19.659061 -0.398649
													CHANNELS 3 Xrotation Yrotation Zrotation
													JOINT Bip01_Xtra02
													{
														OFFSET 4.152210 -5.712314 0.433813
														CHANNELS 3 Xrotation Yrotation Zrotation
														JOINT Bip01_Xtra02Nub
														{
															OFFSET 15.457960 0.041654 0.507982
															CHANNELS 3 Xrotation Yrotation Zrotation
															End Site
															{
																OFFSET -15.421730 -0.157725 -1.163459
															}
														}
													}
													JOINT Bip01_R_Finger0Nub
													{
														OFFSET 8.362326 -9.718440 -0.143142
														CHANNELS 3 Xrotation Yrotation Zrotation
														End Site
														{
															OFFSET -1.213036 -0.198171 9.872291
														}
													}
												}
											}
										}
									}
								}
								JOINT Bip01_L_Clavicle
								{
									OFFSET -16.535673 0.011162 -6.705583
									CHANNELS 3 Xrotation Yrotation Zrotation
									JOINT Bip01_L_UpperArm
									{
										OFFSET 20.272615 -12.959999 -2.510836
										CHANNELS 3 Xrotation Yrotation Zrotation
										JOINT Bip01_L_Forearm
										{
											OFFSET -13.633495 -15.503681 0.653678
											CHANNELS 3 Xrotation Yrotation Zrotation
											JOINT Bip01_L_Hand
											{
												OFFSET 2.579988 -27.804686 1.136487
												CHANNELS 3 Xrotation Yrotation Zrotation
												JOINT Bip01_L_Finger0
												{
													OFFSET -0.281765 -19.659058 0.398696
													CHANNELS 3 Xrotation Yrotation Zrotation
													JOINT Bip01_Xtra01
													{
														OFFSET 4.083549 -5.738758 -0.666714
														CHANNELS 3 Xrotation Yrotation Zrotation
														JOINT Bip01_Xtra01Nub
														{
															OFFSET 6.758158 -0.395525 -0.023239
															CHANNELS 3 Xrotation Yrotation Zrotation
															End Site
															{
																OFFSET 6.764923 -0.254147 -0.029908
															}
														}
													}
													JOINT Bip01_L_Finger0Nub
													{
														OFFSET -0.012636 -9.629153 0.045740
														CHANNELS 3 Xrotation Yrotation Zrotation
														End Site
														{
															OFFSET 0.988407 0.004791 8.293357
														}
													}
												}
											}
										}
									}
								}
								JOINT BN_hair03_01
								{
									OFFSET -5.894140 16.270622 -2.498433
									CHANNELS 3 Xrotation Yrotation Zrotation
									JOINT BN_hair03_02
									{
										OFFSET -0.189278 -7.800507 -6.219162
										CHANNELS 3 Xrotation Yrotation Zrotation
										JOINT BN_hair03_03
										{
											OFFSET 0.612345 -10.844475 -3.370718
											CHANNELS 3 Xrotation Yrotation Zrotation
											End Site
											{
												OFFSET -2.273296 2.862007 -10.769416
											}
										}
									}
								}
								JOINT Bip01_Neck1
								{
									OFFSET 9.383755 11.908699 -0.000007
									CHANNELS 3 Xrotation Yrotation Zrotation
									JOINT BN_hair02_01
									{
										OFFSET 9.126320 18.808022 -1.420810
										CHANNELS 3 Xrotation Yrotation Zrotation
										JOINT BN_hair02_02
										{
											OFFSET 0.393478 -5.181091 -5.248574
											CHANNELS 3 Xrotation Yrotation Zrotation
											JOINT BN_hair02_03
											{
												OFFSET 0.762280 -8.167076 -0.230047
												CHANNELS 3 Xrotation Yrotation Zrotation
												End Site
												{
													OFFSET -0.025837 -1.251419 -8.109770
												}
											}
										}
									}
									JOINT Bip01_Head
									{
										OFFSET 14.266129 10.475403 -0.000008
										CHANNELS 3 Xrotation Yrotation Zrotation
										JOINT BN_Reins_01
										{
											OFFSET 18.547455 -15.740112 -0.000035
											CHANNELS 3 Xrotation Yrotation Zrotation
											JOINT BN_Reins_02
											{
												OFFSET -5.372810 -5.884506 0.000028
												CHANNELS 3 Xrotation Yrotation Zrotation
												JOINT BN_Reins_03
												{
													OFFSET -6.395866 -15.947449 0.000070
													CHANNELS 3 Xrotation Yrotation Zrotation
													JOINT BN_Halter_R_01
													{
														OFFSET -1.234055 -3.096100 7.096737
														CHANNELS 3 Xrotation Yrotation Zrotation
														End Site
														{
															OFFSET 10.514435 -4.176861 -0.000004
														}
													}
													JOINT BN_Halter_L_01
													{
														OFFSET -1.234062 -3.096146 -7.096726
														CHANNELS 3 Xrotation Yrotation Zrotation
														End Site
														{
															OFFSET -10.514435 4.176865 -0.000000
														}
													}
													JOINT BN_Reins_04
													{
														OFFSET -6.737644 -16.971684 0.000074
														CHANNELS 3 Xrotation Yrotation Zrotation
														JOINT BN_Halter_R_02
														{
															OFFSET -4.688869 -11.781956 7.096771
															CHANNELS 3 Xrotation Yrotation Zrotation
															End Site
															{
																OFFSET 14.669624 -5.827511 -0.000006
															}
														}
														JOINT BN_Halter_L_02
														{
															OFFSET -4.688892 -11.782017 -7.096693
															CHANNELS 3 Xrotation Yrotation Zrotation
															End Site
															{
																OFFSET -14.669624 5.827507 -0.000002
															}
														}
														JOINT BN_Reins_05
														{
															OFFSET -6.822578 -16.971161 0.000074
															CHANNELS 3 Xrotation Yrotation Zrotation
															JOINT BN_Reins_06
															{
																OFFSET -6.140354 -15.095148 0.000066
																CHANNELS 3 Xrotation Yrotation Zrotation
																End Site
																{
																	OFFSET -15.095150 6.140352 -0.000002
																}
															}
														}
													}
												}
											}
										}
										JOINT BN_hair01_01
										{
											OFFSET 8.957344 8.870956 0.112121
											CHANNELS 3 Xrotation Yrotation Zrotation
											JOINT BN_hair01_02
											{
												OFFSET 6.002075 -2.962952 -3.121264
												CHANNELS 3 Xrotation Yrotation Zrotation
												End Site
												{
													OFFSET 5.917702 3.813591 -2.232396
												}
											}
										}
										JOINT BN_Eyebrow_R
										{
											OFFSET 11.795959 -0.430496 4.449781
											CHANNELS 3 Xrotation Yrotation Zrotation
											JOINT Bip01_Xtra06Nub
											{
												OFFSET 2.936661 -0.262573 3.246701
												CHANNELS 3 Xrotation Yrotation Zrotation
												End Site
												{
													OFFSET 2.768745 0.208199 3.394807
												}
											}
										}
										JOINT BN_Eyebrow_L
										{
											OFFSET 11.586395 -0.445618 -4.441728
											CHANNELS 3 Xrotation Yrotation Zrotation
											JOINT Bip01_Xtra05Nub
											{
												OFFSET 3.244698 -0.349442 -4.416700
												CHANNELS 3 Xrotation Yrotation Zrotation
												End Site
												{
													OFFSET 3.053162 0.072495 -4.564033
												}
											}
										}
										JOINT Bip01_R_Ear_01
										{
											OFFSET 7.142960 7.567184 4.311657
											CHANNELS 3 Xrotation Yrotation Zrotation
											JOINT Bip01_Xtra04Nub
											{
												OFFSET 9.464531 9.264214 1.682953
												CHANNELS 3 Xrotation Yrotation Zrotation
												End Site
												{
													OFFSET 8.448181 10.159340 1.910823
												}
											}
										}
										JOINT Bip01__L_Ear_01
										{
											OFFSET 7.214943 7.717056 -4.356771
											CHANNELS 3 Xrotation Yrotation Zrotation
											JOINT Bip01_Xtra03Nub
											{
												OFFSET 9.230225 8.944366 -2.322746
												CHANNELS 3 Xrotation Yrotation Zrotation
												End Site
												{
													OFFSET 8.170288 9.841324 -2.643566
												}
											}
										}
										JOINT Bip01_Jaw
										{
											OFFSET 9.196068 -4.110695 -0.000013
											CHANNELS 3 Xrotation Yrotation Zrotation
											JOINT Bip01_Ponytail1Nub
											{
												OFFSET 10.976463 -21.082108 -0.000053
												CHANNELS 3 Xrotation Yrotation Zrotation
												End Site
												{
													OFFSET 11.247093 -20.938980 0.000113
												}
											}
										}
										JOINT Bip01_HeadNub
										{
											OFFSET 29.954575 -18.249489 -0.000063
											CHANNELS 3 Xrotation Yrotation Zrotation
											End Site
											{
												OFFSET -9.198448 -13.366348 0.000168
											}
										}
									}
								}
							}
						}
					}
				}
			}
		}
	}
}
MOTION
Frames: 4
Frame Time: 0.033333
0.000000 0.000000 0.000000 0.000008 0.000000 -0.000000 -0.000000 0.000000 -0.000000 0.000001 -0.000014 11.151161 0.205372 -3.299548 0.039624 -1.623335 3.615755 18.692766 -3.233927 8.567850 19.441988 -0.149923 1.189929 19.268192 2.809734 -9.913138 15.708936 4.138731 -15.434554 18.842914 0.330426 2.869902 31.084812 -8.838165 8.468302 -4.430497 7.147555 -2.054067 -38.303749 2.242095 -0.100109 -11.386415 2.942194 -1.976378 13.014062 0.000728 -0.000019 -0.003715 0.000101 -0.000135 0.000004 4.272702 -4.322669 5.233021 -5.764923 1.220318 -30.159653 -1.940130 0.060444 -9.844101 0.568806 4.518237 -7.031448 -0.000890 0.000033 -0.003708 0.008859 -0.000621 0.038562 -0.204867 3.274670 17.096937 0.917530 -0.020778 6.784388 1.532649 -0.153360 -0.014750 5.968649 1.278726 -4.950975 0.000078 -0.000112 -0.000050 -0.000052 -0.014927 0.015041 3.507464 1.048176 -1.155681 -1.004822 0.464705 -0.330414 14.160165 0.691585 -2.838735 -9.320073 -3.852785 -32.447244 6.486192 6.965974 23.223263 -13.802103 -5.202626 -11.379053 0.814565 -1.855414 51.096638 16.150319 -2.079991 -95.065257 -0.604287 -0.337485 -20.000781 -1.002797 -0.004249 -0.069940 -0.802400 0.160617 -0.479872 -0.804183 0.123488 -0.482622 -5.808294 5.118710 -0.176345 8.749593 -6.431862 -10.179983 -0.070978 0.653960 16.089812 1.758555 5.175700 -5.727325 4.638474 0.002466 -3.264551 3.338728 2.068693 -0.778606 0.036840 0.063821 2.451853 -0.000913 0.100573 2.451956 -1.870039 -4.351271 5.169434 4.395269 0.322688 0.980805 0.234804 -1.718227 5.690659 -0.444176 -5.449184 -9.307465 15.072810 -1.259483 9.425176 17.012937 4.948453 4.051776 18.249045 6.300371 2.022361 9.410397 -0.579557 -4.777178 -0.000029 0.000324 33.480071 -0.441783 -0.458728 -72.796129 -0.000058 -0.000072 -21.994000 0.000019 -0.000007 -0.026802 0.000002 -0.000015 0.012747 -0.000097 -0.000110 -34.639882 0.000034 0.000015 0.015166 0.000024 -0.000010 0.012723 -0.000049 -0.000055 -24.223450 0.000013 -0.000013 -0.000050 -9.367543 -19.736897 0.181983 -5.632886 -14.116620 18.029341 -8.872283 -16.803669 1.171873 0.024248 -0.029987 11.786672 0.012455 -0.002402 0.003952 0.023337 -0.032272 11.715800 0.032093 12.487409 -26.654613 0.022844 0.006858 11.753075 -6.236608 5.477457 -23.059560 0.050236 0.014943 11.743062 0.646747 0.598414 -12.233928 -0.004386 -0.052762 11.750680 0.000072 -0.000033 11.750671 
0.000000 0.000000 0.000000 0.000008 0.000000 -0.000000 -0.000000 0.000000 -0.000000 0.000001 -0.000014 11.288251 0.186593 -4.120406 -0.042459 -1.582407 3.536457 18.458427 -3.382595 8.992058 19.234745 -0.470952 2.162596 19.056059 2.590523 -8.937266 15.420224 4.389549 -15.642684 18.867701 0.387496 3.551432 29.813701 -9.026726 8.434749 -3.168036 7.164112 -2.065754 -38.405799 2.203012 -0.094510 -11.186497 2.993086 -1.963302 12.885198 0.000728 -0.000019 -0.003715 0.000101 -0.000137 0.000004 4.335799 -4.076219 6.010102 -5.790860 1.233585 -30.306639 -1.804549 0.045326 -9.153216 0.551813 4.484206 -7.164732 -0.000890 0.000033 -0.003708 0.008859 -0.000621 0.038562 -0.247815 3.313542 17.126981 0.917530 -0.020778 6.784395 1.532432 -0.153337 -0.014725 5.732059 1.664393 -3.769930 0.000078 -0.000112 -0.000053 -0.000051 -0.014928 0.015039 2.967626 0.925252 -0.973448 0.140329 0.637571 -0.699312 14.770940 0.761692 -3.043577 -8.976652 -4.049223 -31.925086 5.996763 7.160721 24.627009 -13.629006 -6.022036 -8.616319 0.909636 -1.933056 54.091820 16.207458 -3.043655 -100.482062 -0.520115 -0.364130 -20.729710 -1.002958 -0.004347 -0.069948 -0.802182 0.160618 -0.479860 -0.804184 0.123488 -0.482623 -6.473337 5.012042 -1.348621 9.585238 -6.154402 -11.999451 -0.066509 0.636050 15.639731 1.678238 4.977403 -6.672080 4.656903 0.001408 -3.116834 3.329347 2.068830 -0.778228 0.036620 0.063819 2.451852 -0.000914 0.100573 2.451956 -1.908116 -4.266260 5.066422 4.064412 0.286782 1.016226 -0.044433 -1.780031 5.711785 -1.387229 -6.175492 -8.825333 15.605468 -1.066740 9.336883 17.910785 5.033254 3.836396 18.264611 6.264903 1.865473 10.443521 -0.064084 -4.420712 -0.000028 0.000323 33.480071 -0.441783 -0.458727 -72.796122 -0.000059 -0.000072 -21.993998 0.000019 -0.000008 -0.026803 0.000002 -0.000016 0.012749 -0.000098 -0.000112 -34.639875 0.000037 0.000016 0.015165 0.000026 -0.000010 0.012723 -0.000047 -0.000054 -24.223455 0.000013 -0.000013 -0.000050 -9.378200 -19.833674 0.294375 -5.463340 -14.018660 18.102098 -8.858915 -16.775360 1.176480 0.024311 -0.029970 11.786754 0.012486 -0.002333 0.003948 0.023220 -0.032291 11.715975 -2.101128 13.206387 -25.118675 0.022843 0.006858 11.753084 -7.984034 6.481226 -21.652849 0.050137 0.014755 11.743109 0.646936 0.598862 -12.841560 -0.004526 -0.052594 11.750682 0.000072 -0.000034 11.750675 
0.000000 0.000000 0.000000 0.000008 0.000000 -0.000000 -0.000000 0.000000 -0.000000 0.000001 -0.000014 11.422533 0.171687 -4.850776 -0.124304 -1.515098 3.382368 18.223710 -3.495132 9.323869 19.022690 -0.774640 3.077267 18.857497 2.344739 -7.863914 15.143513 4.635831 -15.846648 18.892964 0.428359 4.137585 28.461791 -9.202922 8.380989 -1.889997 7.178740 -2.076113 -38.496032 2.152714 -0.087512 -10.929344 3.042349 -1.947227 12.758677 0.000728 -0.000018 -0.003715 0.000101 -0.000137 0.000004 4.414146 -3.829140 6.864275 -5.816261 1.246658 -30.450763 -1.668271 0.031802 -8.459632 0.517037 4.445585 -7.301664 -0.000890 0.000034 -0.003708 0.008859 -0.000621 0.038562 -0.271379 3.341386 17.106631 0.917530 -0.020778 6.784392 1.532459 -0.153336 -0.014729 5.458490 2.055390 -2.602507 0.000077 -0.000112 -0.000051 -0.000053 -0.014928 0.015043 2.475694 0.798393 -0.807533 1.264345 0.799880 -1.064335 15.049499 0.792131 -3.135876 -8.555602 -4.254361 -31.361654 5.459525 7.298096 25.795791 -13.377805 -6.852681 -4.586283 0.979843 -1.985333 56.227695 16.094711 -4.100813 -105.930032 -0.443124 -0.390433 -21.421200 -1.003027 -0.004257 -0.069953 -0.802208 0.160618 -0.479861 -0.804184 0.123489 -0.482623 -6.736511 5.183697 -2.059372 10.530326 -6.244539 -10.455972 -0.083031 0.699531 17.239153 0.859752 4.476783 -18.404949 4.551661 0.003189 -4.002049 3.320329 2.068909 -0.777858 0.036647 0.063820 2.451853 -0.000913 0.100575 2.451955 -1.797150 -4.136727 4.934162 3.761535 0.256100 1.046245 -0.312263 -1.838024 5.728115 -2.001705 -6.457798 -8.285582 16.043045 -0.913016 9.253113 18.791604 5.113161 3.623880 18.279757 6.230088 1.711681 10.863126 0.167968 -4.115879 -0.000028 0.000324 33.480074 -0.441785 -0.458727 -72.796122 -0.000060 -0.000073 -21.994000 0.000020 -0.000008 -0.026803 0.000003 -0.000016 0.012747 -0.000096 -0.000112 -34.639882 0.000035 0.000016 0.015163 0.000025 -0.000009 0.012723 -0.000048 -0.000054 -24.223450 0.000012 -0.000013 -0.000048 -9.017333 -19.750761 0.724146 -5.297284 -13.922384 18.173125 -8.845828 -16.747624 1.180986 0.024178 -0.030010 11.786589 0.012508 -0.002284 0.003940 0.023236 -0.032303 11.715958 -4.173860 13.784217 -23.515802 0.022842 0.006859 11.753078 -9.661483 7.361650 -20.177868 0.050146 0.014780 11.743104 0.646761 0.598456 -13.354377 -0.004511 -0.052615 11.750680 0.000072 -0.000033 11.750674 
0.000000 0.000000 0.000000 0.000008 0.000000 -0.000000 -0.000000 0.000000 -0.000000 0.000001 -0.000014 11.567024 0.158319 -5.503916 -0.209887 -1.420579 3.151459 17.982490 -3.573191 9.566215 18.791309 -1.063867 3.944492 18.668879 2.073688 -6.688343 14.870399 4.676080 -15.434330 18.795333 0.449162 4.639243 27.007241 -9.368938 8.308021 -0.580946 7.192693 -2.086023 -38.582178 2.089646 -0.079059 -10.607124 3.093471 -1.934537 12.627617 0.000728 -0.000020 -0.003715 0.000101 -0.000137 0.000004 4.506640 -3.574668 7.806539 -5.841885 1.259929 -30.596348 -1.527959 0.019611 -7.746302 0.481823 4.406664 -7.439967 -0.000890 0.000035 -0.003708 0.008859 -0.000620 0.038562 -0.280051 3.355574 17.046093 0.917530 -0.020778 6.784387 1.532488 -0.153349 -0.014732 5.139576 2.455120 -1.416490 0.000077 -0.000112 -0.000056 -0.000052 -0.014927 0.015046 2.017336 0.668884 -0.653546 2.380138 0.953756 -1.429454 15.330833 0.822399 -3.229211 -8.038096 -4.481943 -30.739837 4.860331 7.387872 26.706344 -13.034681 -7.692025 1.001401 1.018690 -2.012559 57.385180 15.777952 -5.248029 -111.511403 -0.370976 -0.416865 -22.049411 -1.002872 -0.004345 -0.069931 -0.802236 0.160617 -0.479862 -0.804184 0.123488 -0.482622 -6.497226 5.693832 -2.184785 11.546077 -6.726028 -5.238044 -0.134547 0.863112 21.421835 -0.982916 4.200445 -43.443900 4.287782 0.014474 -6.186953 3.310976 2.069044 -0.777482 0.036674 0.063834 2.451852 -0.000914 0.100573 2.451953 -1.448882 -3.937841 4.753517 3.473692 0.222253 1.075007 -0.563464 -1.890689 5.738414 -2.564112 -6.585495 -7.650298 16.463372 -0.794385 9.098454 19.672055 5.197204 3.379755 18.294988 6.194880 1.556342 11.009411 0.343427 -3.845772 -0.000028 0.000322 33.480068 -0.441783 -0.458727 -72.796129 -0.000059 -0.000072 -21.993998 0.000019 -0.000008 -0.026807 0.000003 -0.000016 0.012745 -0.000096 -0.000112 -34.639878 0.000036 0.000015 0.015165 0.000026 -0.000010 0.012720 -0.000048 -0.000055 -24.223450 0.000013 -0.000013 -0.000053 -8.352344 -19.393383 1.757944 -5.129779 -13.824968 18.244526 -8.832600 -16.719612 1.185555 0.024196 -0.029998 11.786605 0.012465 -0.002372 0.003948 0.023253 -0.032296 11.715934 -6.223739 14.228822 -21.808920 0.022844 0.006861 11.753078 -11.295681 8.147656 -18.593488 0.050161 0.014803 11.743093 0.646727 0.598376 -13.772324 -0.004493 -0.052636 11.750687 0.000072 -0.000035 11.750672 
